<mxfile host="app.diagrams.net" modified="2023-11-20T07:29:50.096Z" agent="Mozilla/5.0 (Macintosh; Intel Mac OS X 10_15_7) AppleWebKit/537.36 (KHTML, like Gecko) Chrome/112.0.0.0 Safari/537.36 Edg/112.0.1722.48" version="21.6.3" etag="f0HV22eYUzLgv9-mutEv" type="github">
  <diagram name="Page-1" id="1Gu9rarBIlC9nf9EDqWI">
    <mxGraphModel>
      <root>
        <mxCell id="0" />
        <mxCell id="1" parent="0" />
      </root>
    </mxGraphModel>
  </diagram>
</mxfile>
